<svg width="125" height="125" viewBox="0 0 125 125" fill="none" xmlns="http://www.w3.org/2000/svg">
<circle cx="62" cy="62" r="42" fill="#4CA8A9"/>
<path d="M119.271 63.517L118.727 70.2149L110.754 69.5676L110.839 68.5151L117.792 69.0795L118.165 64.4866L111.212 63.9222L111.297 62.8697L119.271 63.517Z" fill="#1B1B1B"/>
<path d="M109.77 77.8998C109.209 76.8999 109.078 75.8383 109.378 74.7149C109.683 73.571 110.327 72.7106 111.309 72.1336C112.301 71.5595 113.369 71.425 114.513 71.7304C115.657 72.0357 116.511 72.6832 117.075 73.6728C117.649 74.6651 117.784 75.7332 117.478 76.8771C117.176 78.0108 116.528 78.8647 115.536 79.4389C114.551 80.0261 113.487 80.1671 112.343 79.8617C111.209 79.5591 110.352 78.9051 109.77 77.8998ZM111.826 73.05C111.082 73.4806 110.596 74.1236 110.367 74.979C110.139 75.8344 110.24 76.6342 110.671 77.3785C111.122 78.1282 111.77 78.6159 112.615 78.8414C113.471 79.0697 114.27 78.9686 115.015 78.538C115.769 78.1101 116.261 77.4684 116.489 76.6131C116.717 75.7577 116.611 74.9565 116.17 74.2095C115.739 73.4653 115.096 72.979 114.241 72.7507C113.396 72.5251 112.591 72.6249 111.826 73.05Z" fill="#1B1B1B"/>
<path d="M112.23 89.6631L105.956 86.6145L105.466 87.6219L102.617 86.2375L103.078 85.2876L105.007 86.2246L107.86 80.3529L105.931 79.416L106.393 78.4661L109.242 79.8506L108.816 80.7285C109.23 81.5347 110.018 82.2199 111.179 82.7839L114.734 84.511L112.23 89.6631ZM108.256 81.8798L106.417 85.6647L111.771 88.2658L113.351 85.0133L110.717 83.7338C109.604 83.193 108.784 82.575 108.256 81.8798Z" fill="#1B1B1B"/>
<path d="M107.756 96.7688C107.064 97.6768 106.154 98.2035 105.024 98.3489C103.888 98.5028 102.853 98.2243 101.92 97.5134C100.986 96.8026 100.443 95.8792 100.289 94.7431C100.129 93.6155 100.394 92.5977 101.086 91.6896C101.945 90.5609 103.064 90.0592 104.444 90.1844L100.65 87.2959L101.29 86.4558L110.201 93.2409L109.561 94.0811L108.314 93.1311C108.801 94.4275 108.615 95.6401 107.756 96.7688ZM104.031 91.0167C103.179 91.1321 102.485 91.5419 101.949 92.2463C101.412 92.9507 101.202 93.7289 101.317 94.581C101.45 95.446 101.864 96.1434 102.56 96.6733C103.264 97.2096 104.042 97.4201 104.894 97.3047C105.755 97.1958 106.453 96.7891 106.99 96.0848C107.526 95.3804 107.732 94.5989 107.608 93.7404C107.493 92.8883 107.083 92.1941 106.379 91.6578C105.683 91.1279 104.9 90.9142 104.031 91.0167Z" fill="#1B1B1B"/>
<path d="M93.1249 101.6C93.2107 100.457 93.6893 99.5003 94.5606 98.7305C95.448 97.9466 96.4602 97.586 97.5974 97.6488C98.7417 97.7196 99.7058 98.1987 100.49 99.086C101.274 99.9733 101.627 100.985 101.549 102.121C101.478 103.266 100.999 104.23 100.112 105.014C99.2324 105.791 98.2206 106.144 97.0763 106.073C95.9311 106.017 94.9665 105.546 94.1826 104.658C93.4058 103.779 93.0532 102.76 93.1249 101.6ZM97.5212 98.6983C96.663 98.6452 95.9021 98.9118 95.2386 99.4979C94.5751 100.084 94.2169 100.806 94.1638 101.665C94.1248 102.539 94.3949 103.304 94.974 103.959C95.5602 104.623 96.2824 104.981 97.1406 105.034C98.0058 105.095 98.7702 104.832 99.4337 104.246C100.097 103.66 100.452 102.934 100.498 102.068C100.551 101.209 100.284 100.449 99.6983 99.7852C99.1192 99.1297 98.3935 98.7674 97.5212 98.6983Z" fill="#1B1B1B"/>
<path d="M87.2865 104.073C88.267 103.489 89.2856 103.323 90.3421 103.575C91.395 103.842 92.2326 104.497 92.8549 105.542C93.5537 106.715 93.9145 107.717 93.9375 108.547C93.966 109.387 93.6015 110.38 92.8442 111.527C92.598 111.884 92.4032 112.162 92.2599 112.359C92.0156 112.678 91.8291 112.938 91.7004 113.139C91.1215 113.981 90.9885 114.674 91.3014 115.221L90.341 115.234C90.2503 114.978 90.2008 114.728 90.1924 114.484C90.1915 114.212 90.2151 113.981 90.2632 113.79C90.3022 113.606 90.3999 113.374 90.5563 113.094C90.6575 112.91 90.7853 112.697 90.9397 112.456L91.4551 111.758L91.9373 111.098C92.4059 110.447 92.7058 109.877 92.8373 109.389C92.965 108.916 92.9511 108.402 92.7955 107.849C92.737 108.418 92.5295 108.945 92.1731 109.431C91.8221 109.925 91.4038 110.317 90.9181 110.607C90.0017 111.153 89.0656 111.301 88.1096 111.051C87.15 110.815 86.3917 110.23 85.8349 109.296C85.2835 108.37 85.1457 107.409 85.4214 106.413C85.6934 105.432 86.3151 104.651 87.2865 104.073ZM90.0151 104.589C89.2711 104.424 88.5417 104.554 87.8269 104.98C87.1121 105.406 86.654 105.971 86.4523 106.674C86.247 107.392 86.3436 108.086 86.7421 108.755C87.1461 109.433 87.6963 109.857 88.3927 110.025C89.0855 110.209 89.7938 110.085 90.5178 109.653C91.1684 109.266 91.6366 108.707 91.9225 107.978C92.2192 107.268 92.1629 106.569 91.7535 105.881C91.3386 105.185 90.7591 104.754 90.0151 104.589Z" fill="#1B1B1B"/>
<path d="M78.604 113.204L79.8171 116.474L78.827 116.842L76.0447 109.341L77.0347 108.974L78.2478 112.244L82.5682 110.641L81.3551 107.371L82.3452 107.004L85.1275 114.504L84.1374 114.872L82.9243 111.601L78.604 113.204Z" fill="#1B1B1B"/>
<path d="M72.3267 118.498C71.1507 118.709 70.1368 118.462 69.2849 117.758C68.4139 117.069 67.8779 116.163 67.677 115.039C67.6676 114.987 67.649 114.822 67.6211 114.545L74.5354 113.308C74.2895 112.54 73.8408 111.97 73.1893 111.599C72.5378 111.228 71.7868 111.118 70.9363 111.27C69.7393 111.484 68.9739 112.082 68.64 113.063L67.6307 112.691C67.8758 112.062 68.2737 111.53 68.8245 111.095C69.3667 110.673 70.0157 110.395 70.7717 110.259C72.0107 110.038 73.0882 110.246 74.0042 110.884C74.9202 111.522 75.4853 112.44 75.6994 113.637C75.9116 114.823 75.704 115.873 75.0764 116.788C74.4508 117.712 73.5342 118.282 72.3267 118.498ZM72.1464 117.49C72.9654 117.344 73.61 116.979 74.0801 116.397C74.5397 115.816 74.7516 115.123 74.7157 114.316L68.8409 115.367C69.1067 116.187 69.5425 116.775 70.1482 117.133C70.7769 117.497 71.4429 117.616 72.1464 117.49Z" fill="#1B1B1B"/>
<path d="M61.3613 119.389C60.1668 119.371 59.2188 118.935 58.5172 118.081C57.7941 117.238 57.4414 116.246 57.459 115.105C57.4599 115.051 57.4731 114.886 57.4987 114.609L64.5219 114.718C64.4276 113.916 64.0961 113.271 63.5276 112.782C62.9591 112.293 62.2429 112.042 61.379 112.029C60.1631 112.01 59.2976 112.45 58.7823 113.349L57.8628 112.791C58.2237 112.22 58.7159 111.774 59.3396 111.453C59.9525 111.143 60.6429 110.993 61.4108 111.005C62.6693 111.025 63.6871 111.435 64.4642 112.237C65.2412 113.038 65.6203 114.047 65.6016 115.262C65.583 116.468 65.1783 117.459 64.3875 118.236C63.5966 119.024 62.5879 119.408 61.3613 119.389ZM61.3772 118.366C62.2091 118.378 62.9114 118.144 63.4843 117.662C64.0464 117.18 64.387 116.54 64.506 115.742L58.5388 115.649C58.6429 116.504 58.9581 117.165 59.4843 117.632C60.0316 118.11 60.6626 118.355 61.3772 118.366Z" fill="#1B1B1B"/>
<path d="M45.361 113.005L50.9147 114.533L50.6431 115.52L45.0894 113.993L45.361 113.005Z" fill="#1B1B1B"/>
<path d="M36.9433 113.423L31.0955 110.113L35.0369 103.151L35.9559 103.671L32.519 109.742L36.5289 112.012L39.9658 105.941L40.8848 106.462L36.9433 113.423Z" fill="#1B1B1B"/>
<path d="M27.9392 98.7617C29.0823 98.6727 30.1005 99.0002 30.9939 99.7443C31.9036 100.502 32.4139 101.448 32.5248 102.581C32.6289 103.723 32.302 104.749 31.5442 105.659C30.7865 106.568 29.8401 107.071 28.7052 107.167C27.5635 107.271 26.5378 106.944 25.628 106.186C24.7265 105.435 24.2237 104.489 24.1196 103.347C24.0005 102.207 24.3199 101.182 25.0777 100.272C25.8286 99.3706 26.7825 98.8671 27.9392 98.7617ZM31.4759 102.666C31.3979 101.809 31.0188 101.098 30.3385 100.531C29.6582 99.9645 28.89 99.7202 28.0337 99.7983C27.1637 99.8927 26.4489 100.276 25.8891 100.948C25.3224 101.628 25.0781 102.397 25.1562 103.253C25.2274 104.117 25.6031 104.833 26.2834 105.4C26.9636 105.966 27.7353 106.206 28.5985 106.12C29.4547 106.042 30.1662 105.663 30.7328 104.983C31.2926 104.311 31.5403 103.538 31.4759 102.666Z" fill="#1B1B1B"/>
<path d="M16.2717 96.1072L21.6642 91.6817L20.9537 90.8159L23.4025 88.8061L24.0725 89.6224L22.4151 90.9826L26.5565 96.0287L28.2138 94.6686L28.8837 95.4849L26.4349 97.4947L25.8157 96.7402C24.9099 96.7798 23.9581 97.2091 22.9605 98.0279L19.9055 100.535L16.2717 96.1072ZM25.0037 95.7508L22.3341 92.498L17.7332 96.2739L20.0272 99.0691L22.2905 97.2116C23.247 96.4266 24.1514 95.9397 25.0037 95.7508Z" fill="#1B1B1B"/>
<path d="M11.7024 89.1C11.1659 88.0926 11.0675 87.0454 11.407 85.9582C11.7415 84.8616 12.4266 84.0376 13.4622 83.4861C14.4979 82.9346 15.564 82.8261 16.6606 83.1606C17.7521 83.4857 18.5661 84.152 19.1026 85.1594C19.7694 86.4115 19.7579 87.6382 19.0682 88.8393L23.2767 86.5983L23.7731 87.5303L13.8873 92.7946L13.391 91.8625L14.775 91.1255C13.3934 91.0274 12.3692 90.3522 11.7024 89.1ZM18.4842 88.1171C18.7351 87.2947 18.6525 86.4927 18.2363 85.7113C17.8202 84.9298 17.2009 84.4137 16.3785 84.1628C15.5372 83.9219 14.7306 84.0071 13.9586 84.4182C13.1771 84.8343 12.661 85.4536 12.4101 86.276C12.1498 87.1035 12.2277 87.9079 12.6438 88.6893C13.06 89.4708 13.684 89.9844 14.5158 90.2303C15.3382 90.4812 16.1402 90.3986 16.9216 89.9824C17.6936 89.5713 18.2145 88.9495 18.4842 88.1171Z" fill="#1B1B1B"/>
<path d="M13.4548 73.8402C14.4569 74.3974 15.1248 75.2328 15.4585 76.3465C15.7984 77.4807 15.7015 78.5509 15.1679 79.5571C14.6241 80.5663 13.7851 81.2409 12.6509 81.5808C11.5167 81.9206 10.4501 81.8171 9.45107 81.2702C8.44182 80.7264 7.76725 79.8874 7.42738 78.7532C7.09057 77.6293 7.19408 76.5627 7.73792 75.5534C8.26849 74.537 9.10085 73.8588 10.235 73.519C11.359 73.1822 12.4322 73.2893 13.4548 73.8402ZM14.247 79.048C14.6549 78.2911 14.7318 77.4886 14.4776 76.6405C14.2235 75.7924 13.7179 75.1644 12.961 74.7565C12.1836 74.3548 11.376 74.2794 10.5382 74.5305C9.69008 74.7847 9.0621 75.2902 8.65422 76.0472C8.23612 76.8072 8.15414 77.6112 8.40828 78.4593C8.66242 79.3073 9.17307 79.9338 9.94023 80.3386C10.6972 80.7465 11.4997 80.8234 12.3478 80.5692C13.1856 80.3181 13.8187 79.8111 14.247 79.048Z" fill="#1B1B1B"/>
<path d="M13.6592 67.4726C13.7734 68.6082 13.4927 69.6013 12.8171 70.4519C12.1298 71.2929 11.1812 71.7742 9.97134 71.8959C8.61286 72.0325 7.55249 71.9355 6.79024 71.6048C6.01737 71.2752 5.27185 70.5247 4.55368 69.3533C4.33376 68.9788 4.16483 68.6849 4.0469 68.4716C3.86095 68.1151 3.70424 67.8361 3.57676 67.6345C3.05936 66.7538 2.48704 66.3397 1.8598 66.3921L2.25412 65.5162C2.52479 65.5426 2.77212 65.6035 2.99613 65.6989C3.24349 65.8133 3.4431 65.9326 3.59495 66.0567C3.74573 66.1702 3.9146 66.3569 4.10155 66.6168C4.22583 66.7866 4.36446 66.9924 4.51743 67.2343L4.93181 67.9967L5.32546 68.7129C5.71751 69.4132 6.1068 69.9261 6.49333 70.2517C6.86818 70.5678 7.33902 70.7724 7.90584 70.8654C7.41532 70.5717 7.02556 70.1607 6.73656 69.6323C6.43695 69.1049 6.25885 68.56 6.20227 67.9975C6.09552 66.9362 6.35769 66.0254 6.98876 65.2651C7.60816 64.4953 8.45913 64.0559 9.54167 63.947C10.6136 63.8392 11.5425 64.121 12.3283 64.7924C13.1024 65.4542 13.546 66.3476 13.6592 67.4726ZM12.0366 69.7263C12.5011 69.1221 12.6917 68.4061 12.6085 67.5783C12.5252 66.7505 12.2075 66.0963 11.6553 65.6158C11.0914 65.1258 10.4221 64.9198 9.64735 64.9977C8.86198 65.0767 8.2455 65.396 7.79793 65.9556C7.33867 66.5056 7.15121 67.1999 7.23554 68.0383C7.31134 68.7919 7.61899 69.4524 8.15849 70.0199C8.67677 70.5896 9.3339 70.8344 10.1299 70.7543C10.9365 70.6732 11.572 70.3305 12.0366 69.7263Z" fill="#1B1B1B"/>
<path d="M9.03738 55.5419L5.56082 55.2597L5.64626 54.2072L13.62 54.8545L13.5346 55.907L10.058 55.6248L9.68519 60.2177L13.1618 60.4999L13.0763 61.5524L5.10255 60.9052L5.18799 59.8526L8.66455 60.1348L9.03738 55.5419Z" fill="#1B1B1B"/>
<path d="M6.87664 47.6035C7.18474 46.4492 7.83803 45.6355 8.8365 45.1623C9.83017 44.6658 10.8784 44.5647 11.9811 44.8591C12.0326 44.8728 12.1896 44.9258 12.4521 45.0179L10.6406 51.8043C11.441 51.9075 12.1474 51.7428 12.7597 51.3101C13.372 50.8774 13.7896 50.2436 14.0124 49.4088C14.326 48.234 14.1095 47.2874 13.3628 46.5692L14.1277 45.8129C14.5934 46.3016 14.9063 46.8874 15.0662 47.5704C15.2186 48.2404 15.1957 48.9464 14.9977 49.6884C14.6731 50.9045 14.0277 51.7921 13.0615 52.3511C12.0953 52.9102 11.0247 53.0329 9.84987 52.7193C8.68531 52.4085 7.82212 51.7751 7.2603 50.8192C6.68818 49.8606 6.56029 48.7886 6.87664 47.6035ZM7.866 47.8676C7.65143 48.6714 7.70829 49.4097 8.03656 50.0825C8.36758 50.7449 8.90581 51.2308 9.65123 51.5402L11.1904 45.7741C10.3356 45.6674 9.61792 45.8125 9.03722 46.2095C8.44072 46.6244 8.05031 47.1771 7.866 47.8676Z" fill="#1B1B1B"/>
<path d="M10.5176 37.6544C11.0357 36.578 11.8293 35.9004 12.8986 35.6219C13.9674 35.3195 15.0161 35.4158 16.0445 35.9108C16.0926 35.9339 16.2369 36.0152 16.4776 36.1547L13.4315 42.4839C14.1986 42.7347 14.9233 42.7047 15.6056 42.3938C16.2879 42.0829 16.8164 41.5382 17.1911 40.7597C17.7185 39.664 17.6823 38.6937 17.0828 37.8488L17.9754 37.2485C18.3418 37.8155 18.5398 38.4494 18.5694 39.1502C18.5941 39.8369 18.4399 40.5262 18.1069 41.2182C17.561 42.3524 16.7613 43.1039 15.7078 43.4728C14.6542 43.8418 13.5796 43.7626 12.4839 43.2352C11.3978 42.7125 10.668 41.9292 10.2944 40.8853C9.91122 39.8367 9.98561 38.7597 10.5176 37.6544ZM11.4403 38.0985C11.0795 38.8482 10.9975 39.5841 11.1945 40.3063C11.3961 41.0189 11.8342 41.5967 12.5088 42.0398L15.0969 36.6622C14.2771 36.3978 13.5449 36.4065 12.9003 36.6882C12.2369 36.9844 11.7502 37.4545 11.4403 38.0985Z" fill="#1B1B1B"/>
<path d="M23.1281 25.6561L19.3935 30.0413L18.6139 29.3774L22.3485 24.9921L23.1281 25.6561Z" fill="#1B1B1B"/>
<path d="M26.2601 17.8188L31.7232 13.9056L36.3818 20.4092L35.5233 21.0242L31.461 15.353L27.7149 18.0364L31.7772 23.7075L30.9187 24.3225L26.2601 17.8188Z" fill="#1B1B1B"/>
<path d="M43.1057 15.8861C42.7086 16.9617 41.9852 17.7496 40.9357 18.2499C39.867 18.7594 38.7946 18.8275 37.7185 18.4542C36.6379 18.0713 35.8429 17.3455 35.3334 16.2767C34.8239 15.2079 34.7629 14.138 35.1504 13.067C35.5333 11.9864 36.2592 11.1914 37.328 10.6819C38.3871 10.177 39.457 10.116 40.5376 10.4989C41.6232 10.8676 42.4208 11.5864 42.9303 12.6551C43.4352 13.7143 43.4937 14.7913 43.1057 15.8861ZM38.0806 17.4663C38.8911 17.7535 39.6959 17.7066 40.4951 17.3256C41.2943 16.9446 41.8374 16.3489 42.1246 15.5384C42.4027 14.7087 42.3535 13.8991 41.9771 13.1096C41.5961 12.3104 41.0004 11.7672 40.1899 11.48C39.3749 11.1832 38.5678 11.2253 37.7686 11.6062C36.9694 11.9872 36.4285 12.5877 36.1459 13.4078C35.8587 14.2183 35.9056 15.0231 36.2866 15.8223C36.663 16.6118 37.261 17.1598 38.0806 17.4663Z" fill="#1B1B1B"/>
<path d="M50.5351 6.32784L52.2829 13.0813L53.3672 12.8007L54.161 15.8677L53.1386 16.1322L52.6015 14.0566L46.2817 15.6922L46.8189 17.7679L45.7965 18.0324L45.0028 14.9655L45.9477 14.7209C46.2926 13.8824 46.3033 12.8384 45.98 11.589L44.9898 7.76301L50.5351 6.32784ZM47.1868 14.4002L51.2606 13.3459L49.7693 7.58376L46.2687 8.48976L47.0023 11.3244C47.3123 12.5222 47.3738 13.5475 47.1868 14.4002Z" fill="#1B1B1B"/>
<path d="M58.9253 5.10298C60.065 5.04135 61.0561 5.39368 61.8988 6.15997C62.752 6.92568 63.2103 7.89435 63.2737 9.06597C63.337 10.2376 62.9858 11.25 62.2201 12.1033C61.4651 12.956 60.5177 13.4131 59.378 13.4747C57.9614 13.5513 56.854 13.0237 56.0557 11.8918L56.3132 16.6529L55.2587 16.7099L54.654 5.52623L55.7084 5.46921L55.7931 7.03492C56.4647 5.82356 57.5087 5.17958 58.9253 5.10298ZM56.9569 11.6668C57.5968 12.2411 58.3588 12.5044 59.2429 12.4566C60.1269 12.4088 60.8561 12.0649 61.4303 11.4249C62.0035 10.7637 62.2664 9.99638 62.2192 9.12299C62.1714 8.23895 61.8275 7.50979 61.1876 6.9355C60.5471 6.35057 59.7848 6.082 58.9007 6.1298C58.0167 6.17761 57.2878 6.5268 56.7141 7.1774C56.1398 7.81734 55.8766 8.57933 55.9244 9.46337C55.9716 10.3368 56.3158 11.0713 56.9569 11.6668Z" fill="#1B1B1B"/>
<path d="M72.328 13.143C71.3988 13.8146 70.3591 14.0657 69.2088 13.8961C68.0375 13.7235 67.1091 13.1823 66.4238 12.2726C65.74 11.3524 65.4845 10.3066 65.6571 9.1353C65.8298 7.96396 66.3754 7.04167 67.2941 6.36844C68.2143 5.68466 69.2601 5.4291 70.4315 5.60176C71.5922 5.77287 72.5145 6.31853 73.1983 7.23875C73.8942 8.14997 74.1558 9.19126 73.9832 10.3626C73.812 11.5234 73.2603 12.4502 72.328 13.143ZM67.2751 11.6542C67.7879 12.3443 68.4823 12.754 69.3582 12.8831C70.234 13.0122 71.017 12.8203 71.7072 12.3075C72.4005 11.7735 72.8109 11.0739 72.9384 10.2086C73.0676 9.33274 72.8757 8.54972 72.3628 7.85955C71.8516 7.15884 71.158 6.74392 70.2821 6.61482C69.4063 6.48571 68.6225 6.68285 67.9307 7.20624C67.2406 7.71908 66.8309 8.41343 66.7018 9.2893C66.5743 10.1546 66.7654 10.9429 67.2751 11.6542Z" fill="#1B1B1B"/>
<path d="M77.9947 16.0097C76.9174 15.6329 76.1362 14.9585 75.6512 13.9866C75.1798 13.0081 75.1448 11.945 75.5462 10.7972C75.9969 9.50836 76.5333 8.58853 77.1553 8.03766C77.7809 7.47673 78.7763 7.11856 80.1414 6.96317C80.5738 6.92229 80.9116 6.89351 81.1547 6.87684C81.5564 6.85911 81.8756 6.83512 82.1121 6.80486C83.129 6.70845 83.7463 6.36498 83.9641 5.77445L84.591 6.50219C84.4526 6.73631 84.2929 6.93468 84.1117 7.09733C83.9033 7.27306 83.7108 7.40349 83.5341 7.48861C83.3675 7.57725 83.1269 7.65131 82.8123 7.71079C82.606 7.75161 82.3608 7.79018 82.0769 7.8265L81.2108 7.87958L80.3954 7.93339C79.595 7.99249 78.9655 8.12832 78.507 8.34086C78.0621 8.54686 77.6775 8.887 77.3535 9.36128C77.8271 9.041 78.3644 8.86166 78.9655 8.82325C79.57 8.77477 80.1391 8.84384 80.6728 9.03047C81.6796 9.38258 82.3941 10.0053 82.8162 10.8988C83.2518 11.7856 83.2901 12.7426 82.9309 13.7696C82.5753 14.7865 81.9271 15.509 80.9864 15.9372C80.0592 16.3587 79.062 16.3829 77.9947 16.0097ZM76.6387 13.5862C76.9898 14.2626 77.558 14.7382 78.3433 15.0129C79.1287 15.2875 79.8558 15.2762 80.5248 14.9791C81.2073 14.6754 81.6771 14.156 81.9341 13.421C82.1947 12.6759 82.1661 11.9822 81.8483 11.34C81.544 10.6912 80.9942 10.2277 80.1988 9.94953C79.4839 9.69952 78.7553 9.69895 78.0128 9.94782C77.2774 10.1765 76.7777 10.6685 76.5136 11.4236C76.246 12.1889 76.2877 12.9097 76.6387 13.5862Z" fill="#1B1B1B"/>
<path d="M90.4438 16.6974L92.1623 13.6621L93.0812 14.1824L89.1398 21.1441L88.2209 20.6238L89.9393 17.5885L85.9294 15.3183L84.2109 18.3536L83.292 17.8333L87.2334 10.8716L88.1524 11.3919L86.4339 14.4272L90.4438 16.6974Z" fill="#1B1B1B"/>
<path d="M98.5993 18.0979C99.5173 18.8625 99.9812 19.7972 99.991 20.9021C100.024 22.0124 99.6753 23.0061 98.9448 23.883C98.9107 23.924 98.7967 24.0442 98.6028 24.2437L93.2058 19.7482C92.7757 20.4312 92.6284 21.1414 92.7638 21.8788C92.8991 22.6163 93.2988 23.2615 93.9626 23.8145C94.897 24.5928 95.8469 24.794 96.8124 24.4182L97.1772 25.4301C96.5381 25.6474 95.8751 25.6851 95.1881 25.5432C94.5161 25.4 93.8851 25.0826 93.295 24.5911C92.3278 23.7855 91.7936 22.8269 91.6923 21.7152C91.591 20.6035 91.9295 19.5805 92.7077 18.6462C93.4792 17.7201 94.4166 17.2029 95.5201 17.0948C96.6304 16.9784 97.6568 17.3128 98.5993 18.0979ZM97.944 18.8847C97.3047 18.3522 96.6109 18.0936 95.8624 18.1087C95.1222 18.1308 94.4551 18.415 93.8612 18.9614L98.4468 22.781C98.9027 22.0502 99.0726 21.338 98.9564 20.6442C98.8306 19.9286 98.4931 19.3421 97.944 18.8847Z" fill="#1B1B1B"/>
<path d="M106.101 25.5595C106.862 26.4802 107.145 27.4845 106.951 28.5722C106.779 29.6696 106.253 30.5819 105.374 31.3092C105.333 31.3432 105.198 31.4403 104.971 31.6006L100.495 26.1873C99.9467 26.7792 99.6709 27.4501 99.668 28.1999C99.6651 28.9497 99.939 29.6575 100.49 30.3234C101.264 31.2605 102.161 31.6334 103.179 31.4421L103.351 32.5039C102.683 32.5997 102.024 32.5145 101.375 32.2484C100.741 31.9837 100.18 31.5554 99.6901 30.9636C98.8881 29.9935 98.5398 28.9528 98.6451 27.8415C98.7505 26.7302 99.2717 25.7872 100.209 25.0123C101.138 24.2443 102.155 23.9088 103.259 24.0059C104.372 24.0963 105.319 24.6141 106.101 25.5595ZM105.311 26.212C104.781 25.5708 104.147 25.1887 103.409 25.0657C102.677 24.9508 101.969 25.1072 101.284 25.5348L105.087 30.1342C105.67 29.5001 105.968 28.8313 105.982 28.128C105.99 27.4015 105.767 26.7628 105.311 26.212Z" fill="#1B1B1B"/>
<path d="M111.761 42.07L109.34 36.8433L110.269 36.413L112.69 41.6397L111.761 42.07Z" fill="#1B1B1B"/>
<path d="M70.3333 47.8333L84.2222 61.9999M84.2222 61.9999H39.7777M84.2222 61.9999L70.3333 76.1666" stroke="#F6F6F6" stroke-width="6" stroke-linecap="round" stroke-linejoin="round"/>
</svg>
