<svg width="58" height="59" viewBox="0 0 58 59" fill="none" xmlns="http://www.w3.org/2000/svg">
<ellipse cx="29" cy="29.0491" rx="29" ry="29.0066" fill="#1B1B1B"/>
<path d="M28.5 20.9229C28.5 19.3344 29.7872 18.0466 31.375 18.0466C32.9628 18.0466 34.25 19.3344 34.25 20.9229C34.25 21.6595 33.9732 22.3315 33.5179 22.8403H36.6458C37.9918 22.8403 38.6647 22.8403 39.1482 23.1635C39.3575 23.3034 39.5371 23.4832 39.677 23.6925C40 24.1762 40 24.8494 40 26.1959C40 26.3931 40 26.5759 39.999 26.7457C39.996 27.2472 39.5843 27.634 39.083 27.634L17.917 27.634C17.4157 27.634 17.004 27.2472 17.001 26.7457C17 26.5759 17 26.3931 17 26.1959C17 24.8494 17 24.1762 17.323 23.6925C17.4629 23.4832 17.6425 23.3034 17.8518 23.1635C18.3353 22.8403 19.0082 22.8403 20.3542 22.8403H23.4821C23.0268 22.3315 22.75 21.6595 22.75 20.9229C22.75 19.3344 24.0372 18.0466 25.625 18.0466C27.2128 18.0466 28.5 19.3344 28.5 20.9229Z" fill="#F6F6F6"/>
<path d="M38.0818 30.5127C38.0831 29.9829 37.6538 29.5515 37.1243 29.5515H30.4167C29.8874 29.5515 29.4583 29.9808 29.4583 30.5103V40.0956C29.4583 40.6257 29.889 41.0559 30.4189 41.0518C33.5947 41.0271 35.4545 40.8701 36.5438 39.8717C37.9297 38.6012 38.068 35.9685 38.0818 30.5127Z" fill="#F6F6F6"/>
<path d="M27.5417 30.5103C27.5417 29.9808 27.1126 29.5515 26.5833 29.5515H19.8757C19.3462 29.5515 18.9169 29.9829 18.9182 30.5127C18.932 35.9685 19.0703 38.6012 20.4562 39.8717C21.5455 40.8701 23.4053 41.0271 26.5811 41.0518C27.111 41.0559 27.5417 40.6257 27.5417 40.0956V30.5103Z" fill="#F6F6F6"/>
</svg>
