<svg width="199" height="70" viewBox="0 0 199 70" fill="none" xmlns="http://www.w3.org/2000/svg">
<rect x="0.761353" y="36.9249" width="195.354" height="33.4322" rx="5" transform="rotate(-10.6271 0.761353 36.9249)" fill="#4CA8A9"/>
<path d="M42.0635 43.0522L53.4611 51.9021L50.0997 52.5328L39.3362 44.2965L41.1951 54.2036L38.453 54.7181L34.5802 34.0783L37.3224 33.5638L39.0707 42.8812L45.9321 31.9483L49.2935 31.3176L42.0635 43.0522ZM67.8811 47.2734C66.6674 49.0476 64.9697 50.1394 62.7877 50.5489C60.6058 50.9583 58.6277 50.5562 56.8535 49.3425C55.0793 48.1289 53.9874 46.4312 53.578 44.2492C53.1686 42.0673 53.5707 40.0892 54.7843 38.315C55.998 36.5407 57.6957 35.4489 59.8777 35.0395C62.0596 34.6301 64.0377 35.0322 65.8119 36.2458C67.6095 37.4754 68.7111 39.1713 69.1169 41.3336C69.5226 43.4959 69.1106 45.4758 67.8811 47.2734ZM62.3175 48.0426C63.7918 47.766 64.9361 47.0323 65.7505 45.8417C66.5649 44.6511 66.8319 43.3089 66.5516 41.8149C66.2713 40.321 65.5359 39.1668 64.3452 38.3524C63.1546 37.538 61.8222 37.2691 60.3479 37.5458C58.8933 37.8187 57.7588 38.5505 56.9444 39.7411C56.13 40.9317 55.8629 42.274 56.1433 43.7679C56.4236 45.2618 57.159 46.416 58.3496 47.2304C59.5403 48.0448 60.8629 48.3155 62.3175 48.0426ZM84.2327 30.8665L86.9748 30.3519L89.7411 45.0947L87.2348 45.5649L85.2265 34.8617L81.9547 43.2896L81.6303 43.3505L75.5258 36.6819L77.5341 47.3851L74.9984 47.8609L72.2321 33.1182L74.9743 32.6037L81.0032 39.1949L84.2327 30.8665ZM104.475 42.6354L105.526 48.2376L102.99 48.7134L101.939 43.1112C99.5911 43.2872 97.5964 42.7966 95.9548 41.6395C94.317 40.502 93.3063 38.9111 92.9227 36.8668C92.5391 34.8225 92.9043 32.9734 94.0185 31.3196C95.1289 29.6461 96.8101 28.4658 99.062 27.7787L98.0108 22.1765L100.547 21.7007L101.598 27.3029C103.946 27.1269 105.94 27.6175 107.582 28.7746C109.22 29.9121 110.23 31.503 110.614 33.5473C110.998 35.5916 110.632 37.4407 109.518 39.0945C108.408 40.768 106.727 41.9483 104.475 42.6354ZM95.4584 36.391C95.7166 37.767 96.3765 38.8438 97.4381 39.6213C98.5157 40.3755 99.861 40.7132 101.474 40.6344L99.5267 30.2555C98.0107 30.7435 96.8891 31.544 96.1619 32.6572C95.431 33.7508 95.1965 34.9954 95.4584 36.391ZM102.062 29.7797L104.01 40.1586C105.522 39.651 106.634 38.8523 107.345 37.7624C108.072 36.6492 108.307 35.4046 108.049 34.0286C107.791 32.6526 107.123 31.5875 106.045 30.8333C104.983 30.0558 103.656 29.7046 102.062 29.7797ZM128.597 35.881C127.383 37.6552 125.686 38.747 123.504 39.1564C121.322 39.5658 119.344 39.1637 117.569 37.9501C115.795 36.7365 114.703 35.0387 114.294 32.8568C113.884 30.6749 114.287 28.6968 115.5 26.9226C116.714 25.1483 118.412 24.0565 120.593 23.6471C122.775 23.2377 124.753 23.6398 126.528 24.8534C128.325 26.083 129.427 27.7789 129.833 29.9412C130.238 32.1035 129.826 34.0834 128.597 35.881ZM123.033 36.6502C124.508 36.3736 125.652 35.6399 126.466 34.4493C127.281 33.2587 127.548 31.9164 127.267 30.4225C126.987 28.9286 126.252 27.7744 125.061 26.96C123.87 26.1456 122.538 25.8767 121.064 26.1534C119.609 26.4263 118.475 27.1581 117.66 28.3487C116.846 29.5393 116.579 30.8816 116.859 32.3755C117.139 33.8694 117.875 35.0236 119.065 35.838C120.256 36.6524 121.579 36.9231 123.033 36.6502ZM141.014 19.8155C143.078 19.4282 144.979 19.8549 146.718 21.0956C148.457 22.3362 149.527 24.0278 149.929 26.1704C150.335 28.3327 149.952 30.3071 148.782 32.0936C147.627 33.8568 146.008 34.9339 143.924 35.3248C141.487 35.7822 139.446 35.1577 137.804 33.4514L139.386 41.8843L136.821 42.3656L132.948 21.7258L135.513 21.2445L135.989 23.7802C136.902 21.5944 138.577 20.2729 141.014 19.8155ZM143.135 32.9089C144.609 32.6323 145.754 31.8987 146.568 30.7081C147.375 29.4781 147.64 28.126 147.364 26.6518C147.083 25.1578 146.348 24.0037 145.157 23.1893C143.963 22.3552 142.629 22.0765 141.154 22.3531C139.66 22.6334 138.508 23.3787 137.697 24.589C136.883 25.7796 136.616 27.1219 136.896 28.6158C137.173 30.0901 137.91 31.2541 139.108 32.1078C140.299 32.9222 141.641 33.1892 143.135 32.9089ZM150.854 18.366L163.474 15.9981L163.938 18.4749L158.926 19.4154L161.227 31.6813L158.662 32.1627L156.361 19.8967L151.319 20.8428L150.854 18.366Z" fill="white"/>
</svg>
