<svg width="58" height="59" viewBox="0 0 58 59" fill="none" xmlns="http://www.w3.org/2000/svg">
<ellipse cx="29" cy="29.0491" rx="29" ry="29.0066" fill="#1B1B1B"/>
<path fill-rule="evenodd" clip-rule="evenodd" d="M21.7683 19.8565C23.8719 17.4435 33.1281 17.4432 35.2317 19.8565C35.6419 20.3271 35.8922 21.2014 36.0292 22.3042C39.1582 22.8761 40 24.1318 40 26.6736C40 29.3959 39.0344 30.643 35.3275 31.1547C34.2449 33.3834 32.0256 34.9313 29.4583 35.2428V39.1347H31.375C31.9043 39.1347 32.3333 39.5639 32.3333 40.0933C32.3333 40.6227 31.9043 41.0519 31.375 41.0519H25.625C25.0957 41.0519 24.6667 40.6227 24.6667 40.0933C24.6667 39.5639 25.0957 39.1347 25.625 39.1347H27.5417V35.2428C24.9487 34.9282 22.7108 33.3523 21.6404 31.0877C21.651 31.1101 21.6617 31.1325 21.6725 31.1547C17.9656 30.643 17 29.3959 17 26.6736C17 24.1318 17.8418 22.8761 20.9708 22.3042C21.1078 21.2014 21.358 20.327 21.7683 19.8565ZM20.8399 24.2879C20.4721 24.3731 20.1754 24.4669 19.9358 24.5668C19.4095 24.7862 19.2448 24.9958 19.1563 25.1619C19.0337 25.3917 18.9167 25.8167 18.9167 26.6736C18.9167 27.5305 19.0337 27.9556 19.1563 28.1853C19.2448 28.3514 19.4095 28.5611 19.9358 28.7804C20.2181 28.898 20.5796 29.0073 21.0432 29.104C21.0198 28.9429 21.0018 28.7798 20.9893 28.6148C20.8791 27.1616 20.8113 25.6518 20.8399 24.2879ZM35.9563 29.1076L35.9568 29.104C36.4204 29.0073 36.7819 28.898 37.0642 28.7804C37.5905 28.5611 37.7552 28.3514 37.8437 28.1853C37.9663 27.9556 38.0833 27.5305 38.0833 26.6736C38.0833 25.8167 37.9663 25.3917 37.8437 25.1619C37.7552 24.9958 37.5905 24.7862 37.0642 24.5668C36.8246 24.4669 36.5279 24.3731 36.1601 24.2879C36.1887 25.6518 36.1209 27.1616 36.0107 28.6148C35.9981 28.7811 35.9799 28.9454 35.9563 29.1076Z" fill="#F6F6F6"/>
</svg>
