<svg width="192" height="53" viewBox="0 0 192 53" fill="none" xmlns="http://www.w3.org/2000/svg">
<rect x="3.28235" y="0.280396" width="188.621" height="34.7319" rx="5" transform="rotate(5.4229 3.28235 0.280396)" fill="#9FDDDE"/>
<path d="M28.8731 8.46742L36.459 9.18756C38.3704 9.36901 39.9118 10.1683 41.0831 11.5853C42.2544 13.0023 42.7503 14.6566 42.5707 16.5481C42.3912 18.4396 41.5929 19.971 40.1758 21.1423C38.7588 22.3137 37.0946 22.8086 35.1831 22.6271L30.3748 22.1707L29.666 29.6371L26.8885 29.3734L28.8731 8.46742ZM30.6214 19.5724L35.4298 20.0288C36.6045 20.1403 37.5971 19.8428 38.4075 19.1362C39.2416 18.3917 39.7134 17.4421 39.8231 16.2873C39.9365 15.0926 39.6517 14.0712 38.9689 13.2228C38.286 12.3745 37.3671 11.8955 36.2123 11.7859L31.4039 11.3294L30.6214 19.5724ZM58.1298 19.8634L58.3736 17.2949L60.9719 17.5416L59.5543 32.4744L56.956 32.2278L57.1998 29.6593C55.7384 31.5095 53.7633 32.3164 51.2745 32.0802C49.164 31.8798 47.4539 30.9541 46.144 29.3029C44.8162 27.6299 44.2562 25.6983 44.4642 23.5082C44.6702 21.3379 45.5826 19.5562 47.2016 18.163C48.8205 16.7697 50.6752 16.1723 52.7658 16.3708C55.2546 16.6071 57.0426 17.7713 58.1298 19.8634ZM51.8412 29.6026C53.3544 29.7463 54.6669 29.3586 55.7788 28.4396C56.8944 27.4807 57.523 26.2546 57.6648 24.7613C57.8085 23.2481 57.4208 21.9356 56.5017 20.8238C55.5846 19.6921 54.3694 19.0544 52.8562 18.9107C51.3629 18.769 50.0594 19.1675 48.9457 20.1065C47.8339 21.0255 47.2061 22.2417 47.0625 23.7549C46.9207 25.2481 47.3075 26.5706 48.2227 27.7223C49.1418 28.8341 50.3479 29.4609 51.8412 29.6026ZM73.7738 26.1098C75.3603 26.9635 76.0741 28.2266 75.9153 29.8991C75.7925 31.1933 75.1827 32.2203 74.086 32.98C72.9911 33.7199 71.5478 34.0047 69.7558 33.8346C66.7692 33.5511 64.8816 32.1665 64.093 29.6809L66.3951 28.6036C66.7976 30.2892 68.0044 31.2274 70.0153 31.4183C70.9909 31.511 71.7773 31.3747 72.3745 31.0095C72.9717 30.6443 73.3034 30.1132 73.3695 29.4164C73.4262 28.8191 73.2436 28.3095 72.8216 27.8877C72.4194 27.4679 71.8401 27.222 71.0835 27.1502L68.9033 26.9432L69.1273 24.5838L70.74 24.7369C71.4966 24.8087 72.101 24.6853 72.5531 24.3666C73.0072 24.028 73.2644 23.5401 73.3249 22.903C73.3873 22.246 73.1875 21.7047 72.7257 21.2791C72.2657 20.8336 71.6176 20.5712 70.7814 20.4918C69.1089 20.3331 67.9069 20.9321 67.1754 22.2891L65.1712 20.8633C66.4343 18.7733 68.38 17.8531 71.0082 18.1026C72.601 18.2538 73.8356 18.7929 74.7119 19.7198C75.6101 20.6288 76.0005 21.7005 75.8833 22.9349C75.7397 24.4481 75.0365 25.5064 73.7738 26.1098ZM90.5094 27.6684C91.982 28.451 92.639 29.6786 92.4802 31.3511C92.3592 32.6254 91.8438 33.6111 90.9338 34.3082C90.0258 34.9854 88.8151 35.2522 87.3019 35.1085L79.8355 34.3997L81.2531 19.4669L88.1222 20.119C89.5956 20.2588 90.7055 20.7359 91.4519 21.5501C92.2182 22.3661 92.5427 23.3914 92.4255 24.6258C92.2894 26.0594 91.6507 27.0736 90.5094 27.6684ZM87.7816 22.4372L83.5705 22.0374L83.1991 25.9498L87.4102 26.3496C88.9234 26.4932 89.7433 25.898 89.8699 24.564C89.9909 23.2898 89.2948 22.5808 87.7816 22.4372ZM82.5981 32.2813L87.3766 32.735C88.1332 32.8068 88.7276 32.6824 89.1598 32.3618C89.612 32.0431 89.8692 31.5553 89.9316 30.8982C89.9902 30.281 89.8265 29.7833 89.4405 29.4051C89.0763 29.0089 88.5159 28.7749 87.7593 28.7031L82.9808 28.2495L82.5981 32.2813ZM99.3692 31.764L108.637 22.0665L110.728 22.2649L109.31 37.1978L106.742 36.954L107.737 26.4711L98.4689 36.1686L96.3783 35.9702L97.7959 21.0373L100.364 21.2811L99.3692 31.764ZM114.504 22.6234L127.286 23.8369L127.048 26.3456L121.971 25.8636L120.791 38.2877L118.193 38.0411L119.373 25.6169L114.266 25.1321L114.504 22.6234ZM132.63 34.9215L141.898 25.2239L143.988 25.4224L142.571 40.3553L140.002 40.1115L140.997 29.6286L131.73 39.3261L129.639 39.1276L131.057 24.1948L133.625 24.4386L132.63 34.9215ZM162.95 35.9616L150.436 34.7736C150.57 36.1123 151.079 37.2053 151.963 38.0526C152.849 38.88 154.009 39.3618 155.442 39.4979C157.413 39.685 158.916 39.0944 159.95 37.7259L162.041 39.1901C160.354 41.3001 158.057 42.2172 155.15 41.9412C152.801 41.7182 150.939 40.7981 149.566 39.1811C148.236 37.528 147.678 35.5766 147.892 33.3267C148.107 31.0569 149.012 29.2543 150.605 27.9189C152.2 26.5636 154.153 25.9956 156.462 26.2148C158.652 26.4227 160.361 27.3684 161.587 29.0518C162.837 30.6973 163.358 32.6152 163.15 34.8053C163.114 35.1836 163.048 35.569 162.95 35.9616ZM156.23 28.6638C154.856 28.5334 153.664 28.812 152.655 29.4997C151.665 30.1892 150.998 31.1906 150.652 32.5038L160.627 33.4508C160.538 32.0562 160.092 30.939 159.288 30.0992C158.484 29.2595 157.464 28.781 156.23 28.6638Z" fill="#4CA8A9"/>
</svg>
