<svg width="58" height="59" viewBox="0 0 58 59" fill="none" xmlns="http://www.w3.org/2000/svg">
<ellipse cx="29" cy="29.1138" rx="29" ry="29.0066" fill="#1B1B1B"/>
<path fill-rule="evenodd" clip-rule="evenodd" d="M28.5 41.1163C19.0297 41.1163 17 39.0861 17 29.6137C17 20.1413 19.0297 18.1111 28.5 18.1111C37.9702 18.1111 40 20.1413 40 29.6137C40 39.0861 37.9702 41.1163 28.5 41.1163ZM27.3588 35.5856C26.8393 35.4846 26.5 34.9815 26.601 34.4618L28.5101 24.6381C28.6111 24.1184 29.1141 23.779 29.6337 23.8801C30.1532 23.9811 30.4925 24.4842 30.3915 25.0039L28.4824 34.8276C28.3814 35.3473 27.8784 35.6866 27.3588 35.5856ZM25.3443 28.3744C25.7186 28.0001 25.7186 27.3931 25.3443 27.0188C24.9701 26.6445 24.3633 26.6445 23.9891 27.0188L22.0724 28.9359C21.6981 29.3102 21.6981 29.9172 22.0724 30.2915L23.9891 32.2086C24.3633 32.5829 24.9701 32.5829 25.3443 32.2086C25.7186 31.8343 25.7186 31.2273 25.3443 30.853L24.1053 29.6137L25.3443 28.3744ZM31.6557 28.3744C31.2815 28.0001 31.2815 27.3931 31.6557 27.0188C32.03 26.6445 32.6368 26.6445 33.011 27.0188L34.9277 28.9359C35.3019 29.3102 35.3019 29.9172 34.9277 30.2915L33.011 32.2086C32.6368 32.5829 32.03 32.5829 31.6557 32.2086C31.2815 31.8343 31.2815 31.2273 31.6557 30.853L32.8947 29.6137L31.6557 28.3744Z" fill="#F6F6F6"/>
</svg>
