<svg width="202" height="55" viewBox="0 0 202 55" fill="none" xmlns="http://www.w3.org/2000/svg">
<rect x="3.43555" y="9.15527e-05" width="199.471" height="34.7319" rx="5" transform="rotate(5.67679 3.43555 9.15527e-05)" fill="#027778"/>
<path d="M40.816 30.413C37.6317 30.0965 35.1184 28.7915 33.2763 26.498C31.4321 24.2245 30.6624 21.5552 30.967 18.4903C31.2717 15.4254 32.5519 12.96 34.8075 11.0939C37.0651 9.20801 39.7861 8.42331 42.9704 8.73985C44.8611 8.92779 46.5669 9.55963 48.088 10.6354C49.6091 11.7111 50.7402 13.0696 51.4815 14.711L48.9239 15.8737C48.4416 14.6601 47.637 13.6556 46.5102 12.8602C45.4052 12.0469 44.1363 11.569 42.7033 11.4266C40.2753 11.1852 38.2278 11.7656 36.561 13.1676C34.8961 14.5497 33.9469 16.4149 33.7135 18.7633C33.482 21.0919 34.0464 23.0975 35.4066 24.7803C36.7649 26.483 38.658 27.4551 41.086 27.6964C42.519 27.8389 43.8562 27.6301 45.0977 27.0702C46.361 26.4923 47.3476 25.6658 48.0574 24.5908L50.339 26.2044C49.309 27.6697 47.9415 28.7899 46.2365 29.5651C44.5533 30.3223 42.7465 30.6049 40.816 30.413ZM65.0296 24.68C66.4987 25.4692 67.1502 26.6997 66.984 28.3715C66.8574 29.6452 66.3376 30.6286 65.4245 31.3217C64.5135 31.9949 63.3017 32.2563 61.7891 32.1059L54.3259 31.3641L55.8097 16.4376L62.6758 17.1201C64.1486 17.2665 65.2563 17.7485 65.9991 18.566C66.7618 19.3854 67.0818 20.4121 66.9591 21.646C66.8167 23.079 66.1735 24.0903 65.0296 24.68ZM62.3249 19.4368L58.1157 19.0184L57.7269 22.9291L61.9362 23.3475C63.4487 23.4979 64.2713 22.9063 64.4038 21.5729C64.5305 20.2992 63.8375 19.5872 62.3249 19.4368ZM57.0978 29.2579L61.8743 29.7327C62.6306 29.8079 63.2255 29.6861 63.6592 29.3675C64.1127 29.0508 64.3721 28.5641 64.4374 27.9073C64.4988 27.2903 64.3373 26.7919 63.953 26.412C63.5905 26.0142 63.0312 25.7778 62.2749 25.7026L57.4985 25.2278L57.0978 29.2579ZM83.6465 32.3793C81.9836 33.7415 80.0476 34.3128 77.8385 34.0932C75.6293 33.8736 73.8437 32.9324 72.4815 31.2695C71.1193 29.6066 70.548 27.6706 70.7676 25.4615C70.9872 23.2524 71.9284 21.4667 73.5913 20.1045C75.2542 18.7423 77.1902 18.171 79.3994 18.3906C81.6085 18.6102 83.3941 19.5515 84.7563 21.2144C86.1364 22.8991 86.7177 24.8361 86.5001 27.0253C86.2824 29.2146 85.3312 30.9992 83.6465 32.3793ZM78.0907 31.5557C79.5833 31.7041 80.8876 31.3212 82.0035 30.4071C83.1194 29.493 83.7525 28.2797 83.9029 26.7672C84.0532 25.2546 83.6713 23.9404 82.7572 22.8245C81.8431 21.7086 80.6398 21.0765 79.1471 20.9281C77.6744 20.7817 76.3801 21.1656 75.2642 22.0797C74.1483 22.9938 73.5152 24.2071 73.3648 25.7196C73.2144 27.2322 73.5963 28.5464 74.5104 29.6623C75.4245 30.7782 76.6179 31.4093 78.0907 31.5557ZM97.0506 36.003C94.8415 35.7834 93.0927 34.876 91.8042 33.2807C90.5177 31.6655 89.9871 29.7235 90.2127 27.4547C90.4679 24.8873 91.0309 22.9636 91.9018 21.6835C92.7946 20.3854 94.4507 19.2939 96.8701 18.4089C96.9955 18.361 97.1417 18.3052 97.3088 18.2414C97.4959 18.1796 97.7137 18.1108 97.9624 18.0351C98.233 17.9414 98.4618 17.8636 98.6489 17.8018L100.332 17.2456C102.003 16.6078 102.944 15.7366 103.155 14.632L105.126 16.0338C104.917 16.7165 104.633 17.251 104.273 17.6373C104.249 17.6751 104.18 17.7588 104.067 17.8882C103.956 17.9977 103.877 18.0803 103.831 18.1361C103.787 18.1719 103.711 18.2347 103.601 18.3243C103.514 18.396 103.416 18.4667 103.309 18.5364C103.222 18.6081 103.104 18.6768 102.957 18.7426C102.175 19.1271 101.618 19.3732 101.286 19.4809C101.16 19.5287 101.025 19.5756 100.88 19.6214C100.754 19.6693 100.65 19.7091 100.566 19.741C100.483 19.7729 100.42 19.7968 100.378 19.8128L99.3518 20.1328L98.3579 20.4259C96.9671 20.8705 95.9236 21.3597 95.2274 21.8934C94.5312 22.4272 93.9982 23.138 93.6286 24.0258C94.3207 23.3308 95.1543 22.8308 96.1292 22.5258C97.1241 22.2227 98.1191 22.1206 99.1142 22.2195C101.005 22.4075 102.524 23.2016 103.671 24.6019C104.856 26.0261 105.349 27.7333 105.152 29.7235C104.95 31.7535 104.086 33.366 102.56 34.5609C101.017 35.734 99.1801 36.2147 97.0506 36.003ZM102.554 29.4653C102.687 28.1319 102.357 27.0037 101.564 26.0808C100.794 25.14 99.7017 24.5993 98.2886 24.4588C97.0348 24.3342 95.8399 24.6274 94.704 25.3386C93.6079 26.0537 92.9956 27.058 92.867 28.3516C92.7324 29.705 93.0894 30.866 93.9377 31.8346C94.786 32.8033 95.9068 33.3569 97.2999 33.4954C98.7129 33.6358 99.8998 33.3217 100.861 32.5529C101.861 31.7882 102.426 30.759 102.554 29.4653ZM121.528 36.1449C119.865 37.5071 117.929 38.0784 115.72 37.8588C113.511 37.6392 111.725 36.698 110.363 35.0351C109.001 33.3722 108.43 31.4362 108.649 29.2271C108.869 27.018 109.81 25.2323 111.473 23.8701C113.136 22.5079 115.072 21.9366 117.281 22.1562C119.49 22.3758 121.276 23.3171 122.638 24.98C124.018 26.6647 124.599 28.6017 124.382 30.7909C124.164 32.9801 123.213 34.7648 121.528 36.1449ZM115.972 35.3213C117.465 35.4697 118.769 35.0868 119.885 34.1727C121.001 33.2586 121.634 32.0453 121.785 30.5328C121.935 29.0202 121.553 27.706 120.639 26.5901C119.725 25.4742 118.521 24.8421 117.029 24.6937C115.556 24.5473 114.262 24.9312 113.146 25.8453C112.03 26.7594 111.397 27.9727 111.246 29.4852C111.096 30.9978 111.478 32.312 112.392 33.4279C113.306 34.5438 114.5 35.1749 115.972 35.3213ZM141.932 24.9985L140.694 37.4472L142.754 37.6519L142.11 44.13L139.543 43.8748L139.94 39.8745L128.746 38.7617L128.348 42.762L125.781 42.5068L126.425 36.0287L128.246 36.2097C129.331 34.9911 129.992 33.1977 130.228 30.8294L130.916 23.9035L141.932 24.9985ZM131.201 36.5035L138.127 37.192L139.124 27.1614L133.243 26.5768L132.795 31.0846C132.577 33.2738 132.046 35.0801 131.201 36.5035ZM159.804 29.3679L160.06 26.8005L162.657 27.0587L161.173 41.9851L158.576 41.7269L158.831 39.1596C157.362 41.0033 155.383 41.8015 152.895 41.5542C150.786 41.3445 149.079 40.4111 147.777 38.7542C146.457 37.0753 145.905 35.1413 146.123 32.9521C146.338 30.7828 147.259 29.0051 148.884 27.6191C150.509 26.233 152.366 25.6438 154.456 25.8516C156.944 26.0989 158.727 27.271 159.804 29.3679ZM153.473 39.0792C154.985 39.2295 156.3 38.8477 157.415 37.9336C158.535 36.9796 159.169 35.7564 159.318 34.2637C159.468 32.7512 159.086 31.437 158.172 30.3211C157.26 29.1853 156.048 28.5422 154.535 28.3918C153.042 28.2435 151.737 28.6363 150.619 29.5703C149.503 30.4844 148.87 31.6977 148.72 33.2103C148.572 34.7029 148.952 36.0271 149.863 37.1828C150.777 38.2987 151.98 38.9308 153.473 39.0792Z" fill="#F6F6F6"/>
</svg>
