<svg width="58" height="59" viewBox="0 0 58 59" fill="none" xmlns="http://www.w3.org/2000/svg">
<ellipse cx="29" cy="29.1138" rx="29" ry="29.0066" fill="#1B1B1B"/>
<path fill-rule="evenodd" clip-rule="evenodd" d="M32.431 19.5516C33.3741 20.3901 34.0249 21.569 34.2017 23.0396C34.2173 23.1695 34.315 23.2758 34.4435 23.2998C37.0981 23.7949 38.5647 24.8236 39.3149 26.7594C39.3603 26.8766 39.3191 27.0094 39.2179 27.0839C35.5801 29.7622 32.0123 31.0518 28.5 31.0518C24.9877 31.0518 21.4199 29.7622 17.7821 27.0839C17.6809 27.0094 17.6397 26.8766 17.6851 26.7594C18.4353 24.8236 19.9019 23.7949 22.5565 23.2998C22.685 23.2758 22.7827 23.1695 22.7983 23.0396C22.9751 21.569 23.6259 20.3901 24.569 19.5516C25.6645 18.5777 27.0979 18.1113 28.5 18.1113C29.9021 18.1113 31.3355 18.5777 32.431 19.5516ZM28.5 22.9041C27.242 22.9041 26.1152 22.9324 25.1071 22.9992C24.9195 23.0116 24.7685 22.845 24.8178 22.6636C25.0137 21.9427 25.3852 21.391 25.8424 20.9845C26.5439 20.3608 27.5063 20.0284 28.5 20.0284C29.4937 20.0284 30.4561 20.3608 31.1576 20.9845C31.6148 21.391 31.9863 21.9427 32.1822 22.6636C32.2315 22.845 32.0805 23.0116 31.8929 22.9992C30.8848 22.9324 29.758 22.9041 28.5 22.9041Z" fill="#F6F6F6"/>
<path d="M17.5511 29.2684C17.3718 29.1466 17.1261 29.2555 17.1052 29.4712C17.0316 30.2315 17 31.0751 17 32.0103C17 39.5093 19.0297 41.1165 28.5 41.1165C37.9702 41.1165 40 39.5093 40 32.0103C40 31.0751 39.9684 30.2315 39.8948 29.4712C39.8739 29.2555 39.6282 29.1466 39.4489 29.2684C35.8541 31.7094 32.2007 32.9689 28.5 32.9689C24.7993 32.9689 21.1459 31.7094 17.5511 29.2684Z" fill="#F6F6F6"/>
</svg>
