<svg width="47" height="63" viewBox="0 0 47 63" fill="none" xmlns="http://www.w3.org/2000/svg">
<path fill-rule="evenodd" clip-rule="evenodd" d="M17.0903 9.0361V18.072L15.6008 16.5509C14.3192 15.242 13.8852 14.9598 12.4895 14.528C7.98001 13.1335 3.25308 14.926 1.30866 18.7685C0.137965 21.0819 0.00382577 22.3046 2.71344e-05 30.695C-0.00187218 34.9593 0.0961799 38.9747 0.217974 39.618C0.868727 43.0535 2.61467 45.5131 5.26921 46.7339C7.17589 47.6106 10.6495 47.8325 12.5545 47.1989C13.928 46.7422 15.5816 45.5283 16.2594 44.4794C16.5205 44.0753 16.8144 43.7443 16.9123 43.7441C17.0101 43.7436 17.0903 44.4388 17.0903 45.2887V46.834H19.7019H22.3134V23.417V0H19.7019H17.0903V9.0361ZM33.7245 13.8089C32.4772 14.2168 31.923 14.5822 30.7077 15.7994L29.2187 17.2905L29.1493 15.7179L29.0798 14.1453H26.4682H23.8566L23.7961 38.5726L23.7358 63H26.4644H29.193L29.2552 53.6087L29.3172 44.2174L30.1481 45.331C30.6956 46.0646 31.5057 46.7325 32.5223 47.2885C33.9496 48.069 34.2466 48.1391 36.4786 48.2226C38.4778 48.2972 39.1495 48.2257 40.3959 47.8051C43.9652 46.6003 46.1249 43.7058 46.766 39.2673C47.1318 36.7352 47.0494 24.0004 46.653 21.7721C45.9882 18.037 43.8348 15.1381 40.8904 14.015C38.8729 13.2455 35.7248 13.1551 33.7245 13.8089ZM38.7245 19.0493C40.0046 19.7575 40.9797 21.2971 41.3218 23.1514C41.4852 24.0372 41.5476 27.2181 41.492 31.8288C41.4177 37.9942 41.3437 39.2395 41.0082 39.9703C40.4111 41.2705 39.4187 42.3343 38.3487 42.821C37.0521 43.4108 34.6265 43.4046 33.315 42.8084C32.0945 42.2535 30.5831 40.7681 29.8611 39.4145C29.3352 38.4281 29.3148 38.1633 29.2445 31.4282C29.1593 23.2418 29.2562 22.6522 31.0088 20.7001C32.6794 18.8394 33.9715 18.2719 36.2414 18.4017C37.2117 18.4571 38.0486 18.6753 38.7245 19.0493ZM12.2758 19.1401C13.8755 19.6158 15.6646 21.2339 16.4051 22.8752C16.96 24.1045 16.9716 24.2686 16.9664 30.9057C16.9612 37.3462 16.9355 37.7363 16.4469 38.7956C15.8669 40.053 14.4071 41.6207 13.2658 42.2114C12.8461 42.429 11.9054 42.6605 11.1758 42.7261C8.70104 42.9486 6.9171 42.0628 5.86203 40.088C5.35112 39.1313 5.3383 38.9083 5.3383 30.9057C5.3383 22.8428 5.34755 22.685 5.88079 21.6012C6.49617 20.3502 7.73571 19.3798 9.13741 19.0512C10.5146 18.7286 10.9318 18.7405 12.2758 19.1401Z" fill="#1B1B1B"/>
</svg>
