<svg width="45" height="45" viewBox="0 0 45 45" fill="none" xmlns="http://www.w3.org/2000/svg">
<path d="M22.5 0.833374C23.9958 0.833374 25.2083 2.04594 25.2083 3.54171V19.7917H41.4583C42.9541 19.7917 44.1667 21.0043 44.1667 22.5C44.1667 23.9958 42.9541 25.2084 41.4583 25.2084H25.2083V41.4584C25.2083 42.9541 23.9958 44.1667 22.5 44.1667C21.0042 44.1667 19.7917 42.9541 19.7917 41.4584V25.2084H3.54167C2.04589 25.2084 0.833332 23.9958 0.833332 22.5C0.833332 21.0043 2.04589 19.7917 3.54167 19.7917H19.7917V3.54171C19.7917 2.04594 21.0042 0.833374 22.5 0.833374Z" fill="#F6F6F6"/>
</svg>
