<svg width="263" height="64" viewBox="0 0 263 64" fill="none" xmlns="http://www.w3.org/2000/svg">
<rect y="28.5145" width="260.222" height="34.7319" rx="5" transform="rotate(-6.29095 0 28.5145)" fill="#1B1B1B"/>
<path d="M30.7199 30.3355L45.8682 28.6655L48.1693 49.5391L45.3961 49.8448L43.3843 31.5954L33.7824 32.6539L35.7943 50.9033L33.0211 51.209L30.7199 30.3355ZM67.4938 41.0706L54.9995 42.4479C55.4026 43.7315 56.1229 44.6984 57.1604 45.3486C58.1957 45.979 59.429 46.2153 60.8603 46.0575C62.8284 45.8405 64.1797 44.9571 64.9143 43.4073L67.259 44.4164C66.0356 46.825 63.9727 48.1893 61.0702 48.5092C58.7244 48.7678 56.715 48.2449 55.042 46.9403C53.4044 45.5917 52.4617 43.7941 52.2141 41.5477C51.9642 39.2815 52.4838 37.3328 53.7729 35.7017C55.0597 34.0508 56.8562 33.0982 59.1622 32.844C61.3489 32.6029 63.2136 33.1821 64.7563 34.5815C66.3144 35.9389 67.214 37.711 67.4551 39.8977C67.4967 40.2755 67.5096 40.6664 67.4938 41.0706ZM59.4317 35.2892C58.0601 35.4404 56.9498 35.9551 56.1009 36.8334C55.2719 37.7096 54.8215 38.8256 54.7497 40.1817L64.7093 39.0837C64.3394 37.7361 63.6755 36.7328 62.7175 36.0738C61.7595 35.4148 60.6643 35.1533 59.4317 35.2892ZM79.2905 30.625C81.3778 30.3949 83.2414 30.9641 84.8813 32.3327C86.5211 33.7012 87.4605 35.4689 87.6993 37.6358C87.9404 39.8226 87.4098 41.7624 86.1074 43.4553C84.8228 45.1261 83.1268 46.0777 81.0196 46.31C78.5545 46.5817 76.5674 45.8048 75.0583 43.9792L75.9985 52.5075L73.4042 52.7935L71.1031 31.92L73.6974 31.634L73.9801 34.1984C75.0553 32.0879 76.8254 30.8968 79.2905 30.625ZM80.4155 43.8413C81.9064 43.677 83.103 43.032 84.005 41.9063C84.9028 40.7409 85.2694 39.4128 85.1051 37.9218C84.9385 36.411 84.2924 35.2045 83.1668 34.3024C82.039 33.3804 80.7296 33.0016 79.2386 33.166C77.7278 33.3326 76.5224 33.9886 75.6225 35.1341C74.7204 36.2597 74.3526 37.578 74.5192 39.0888C74.6836 40.5798 75.3307 41.7962 76.4608 42.738C77.5864 43.6401 78.9046 44.0079 80.4155 43.8413ZM100.158 44.2001C97.9117 44.4478 95.9608 43.9083 94.3055 42.5817C92.6479 41.2352 91.6964 39.4487 91.451 37.2222C91.2055 34.9957 91.7461 33.0548 93.0727 31.3995C94.3971 29.7242 96.1825 28.7628 98.4289 28.5152C99.9 28.353 101.261 28.5651 102.513 29.1514C103.763 29.7179 104.742 30.5658 105.45 31.695L103.411 33.1874C102.946 32.4338 102.289 31.8623 101.441 31.4729C100.613 31.0813 99.7023 30.9402 98.7083 31.0498C97.2174 31.2142 96.0208 31.8592 95.1188 32.9848C94.2387 34.1281 93.8809 35.4453 94.0453 36.9362C94.2074 38.4073 94.8425 39.6049 95.9504 40.5291C97.0761 41.4312 98.3844 41.8 99.8753 41.6357C100.869 41.5261 101.739 41.1989 102.483 40.654C103.226 40.0892 103.762 39.3862 104.092 38.545L106.44 39.584C105.916 40.8491 105.095 41.8953 103.979 42.7225C102.863 43.5498 101.589 44.0424 100.158 44.2001ZM109.263 27.7132L122.174 26.2898L123.818 41.1995L121.224 41.4855L119.853 29.0508L112.13 29.9022L113.5 42.3369L110.906 42.6229L109.263 27.7132ZM142.881 32.7598L130.387 34.1372C130.79 35.4207 131.51 36.3876 132.547 37.0379C133.583 37.6682 134.816 37.9045 136.247 37.7467C138.215 37.5297 139.567 36.6464 140.301 35.0965L142.646 36.1057C141.423 38.5142 139.36 39.8785 136.457 40.1985C134.111 40.4571 132.102 39.9341 130.429 38.6296C128.791 37.2809 127.849 35.4834 127.601 33.237C127.351 30.9707 127.871 29.022 129.16 27.391C130.447 25.74 132.243 24.7874 134.549 24.5332C136.736 24.2921 138.601 24.8713 140.143 26.2707C141.701 27.6281 142.601 29.4002 142.842 31.587C142.884 31.9647 142.897 32.3556 142.881 32.7598ZM134.819 26.9784C133.447 27.1296 132.337 27.6444 131.488 28.5227C130.659 29.3988 130.209 30.5149 130.137 31.8709L140.096 30.773C139.726 29.4254 139.063 28.4221 138.105 27.7631C137.147 27.1041 136.051 26.8425 134.819 26.9784ZM152.534 30.2469L160.747 37.1283L157.527 37.4834L149.949 31.1657L150.728 38.2329L148.134 38.5189L146.49 23.6092L149.084 23.3232L149.811 29.9133L155.525 22.6131L158.865 22.245L152.534 30.2469ZM161.337 21.9724L174.1 20.5655L174.376 23.0703L169.307 23.6291L170.674 36.034L168.08 36.32L166.713 23.9151L161.613 24.4773L161.337 21.9724ZM181.583 30.3343L188.689 18.9572L190.776 18.727L192.42 33.6367L189.855 33.9194L188.702 23.4528L181.596 34.83L179.508 35.0601L177.865 20.1505L180.429 19.8677L181.583 30.3343ZM206.945 24.2788C208.546 24.7462 209.438 25.8148 209.622 27.4847C209.763 28.757 209.458 29.8268 208.708 30.6941C207.957 31.5416 206.826 32.0486 205.315 32.2152L197.86 33.037L196.216 18.1273L203.075 17.3713C204.546 17.2091 205.729 17.4508 206.626 18.0965C207.542 18.74 208.068 19.678 208.203 20.9106C208.361 22.3419 207.942 23.4646 206.945 24.2788ZM203.212 19.7103L199.007 20.1738L199.438 24.0802L203.642 23.6167C205.153 23.4501 205.835 22.7008 205.688 21.3689C205.548 20.0966 204.723 19.5438 203.212 19.7103ZM200.135 30.4019L204.906 29.8759C205.661 29.7926 206.218 29.5501 206.576 29.1485C206.954 28.7446 207.107 28.2147 207.035 27.5587C206.967 26.9424 206.706 26.4883 206.251 26.1964C205.814 25.8824 205.218 25.767 204.462 25.8503L199.691 26.3763L200.135 30.4019ZM215.919 21.388L219.617 20.9803C221.108 20.816 222.39 21.1274 223.462 21.9146C224.553 22.6797 225.176 23.768 225.331 25.1794C225.487 26.5909 225.117 27.7987 224.222 28.8028C223.324 29.7871 222.14 30.3604 220.669 30.5225L214.377 31.2161L212.733 16.3065L215.328 16.0205L215.919 21.388ZM227.796 29.7369L226.152 14.8272L228.746 14.5412L230.39 29.4509L227.796 29.7369ZM216.705 28.5148L220.403 28.1072C221.158 28.0239 221.76 27.7362 222.209 27.244C222.658 26.7519 222.844 26.1579 222.767 25.4621C222.69 24.7664 222.369 24.2283 221.804 23.8479C221.257 23.4455 220.615 23.2848 219.88 23.3659L216.182 23.7735L216.705 28.5148Z" fill="#F6F6F6"/>
</svg>
