<svg width="82" height="69" viewBox="0 0 82 69" fill="none" xmlns="http://www.w3.org/2000/svg">
<path d="M61.1303 10.658V10.658C60.6871 16.6322 64.7245 22.0156 70.5839 23.2631V23.2631V23.2631C64.6096 22.8199 59.2262 26.8573 57.9788 32.7167V32.7167V32.7167C58.422 26.7424 54.3845 21.359 48.5252 20.1116V20.1116V20.1116C54.4994 20.5548 59.8828 16.5173 61.1303 10.658V10.658Z" fill="#4CA8A9"/>
<path d="M39.1126 16.306V16.306C36.4881 24.1948 40.1468 32.8359 47.608 36.5036V36.5036V36.5036C39.7525 33.8854 31.1888 37.6262 27.7716 45.1686L22.4852 56.8367L26.9163 44.8177C29.7805 37.0485 26.3112 28.3712 18.8802 24.7183V24.7183V24.7183C26.7676 27.3472 35.4407 23.7651 39.1126 16.306V16.306Z" fill="#4CA8A9"/>
</svg>
